<svg xmlns="http://www.w3.org/2000/svg" width="543" height="460" viewBox="0 0 543 460">
<g>
<path d="M 347.18 0.00 L 349.45 0.00 L 346.15 15.25 C344.34,23.64 341.73,35.67 340.35,42.00 C338.98,48.33 337.24,57.10 336.49,61.50 C335.33,68.27 332.80,81.06 328.98,99.54 C328.52,101.75 325.62,115.14 322.54,129.29 L 316.93 155.01 L 289.85 209.75 C274.96,239.86 253.87,282.95 242.99,305.50 C232.12,328.05 216.88,359.28 209.14,374.89 C201.39,390.50 195.29,403.67 195.59,404.14 C195.88,404.61 195.61,405.00 195.00,405.00 C194.39,405.00 194.14,405.41 194.45,405.91 C194.76,406.42 194.59,406.98 194.08,407.16 C193.57,407.35 193.00,408.17 192.82,409.00 C192.65,409.83 192.24,410.73 191.93,411.00 C191.62,411.27 188.13,418.02 184.17,426.00 C180.22,433.98 175.34,443.54 173.34,447.25 L 169.70 454.00 L 138.85 454.00 C114.82,454.00 108.01,453.72 108.03,452.75 C108.05,451.45 111.86,444.08 133.47,403.50 C140.49,390.30 149.17,373.88 152.74,367.00 C156.31,360.12 161.37,350.67 163.98,346.00 C175.65,325.09 194.06,288.90 193.49,287.99 C193.15,287.44 191.45,286.25 189.71,285.35 C187.97,284.45 182.49,280.78 177.52,277.18 C172.56,273.59 165.51,268.82 161.86,266.58 C155.43,262.63 129.37,245.42 114.00,234.96 C109.88,232.15 94.12,221.69 79.00,211.70 L 51.50 193.55 L 63.00 192.38 C69.32,191.74 84.40,190.48 96.50,189.57 L 131.50 186.95 C149.44,185.61 166.06,184.15 182.00,182.51 C189.43,181.75 201.35,180.62 208.50,180.00 C236.37,177.58 252.53,175.84 253.12,175.19 C253.80,174.44 268.90,146.28 275.48,133.50 C277.75,129.10 283.01,119.20 287.17,111.50 C293.97,98.91 305.88,76.62 316.01,57.50 C318.05,53.65 322.55,45.33 326.01,39.00 C329.47,32.67 333.96,24.35 335.99,20.50 C338.02,16.65 341.37,10.46 343.43,6.75 L 347.18 0.00 ZM 433.72 445.71 C433.99,446.42 433.83,446.98 433.36,446.96 C432.89,446.94 420.12,438.57 405.00,428.37 C389.88,418.17 375.48,408.54 373.00,406.97 C363.62,401.02 324.00,375.29 312.38,367.61 C309.15,365.47 299.98,359.42 292.00,354.18 C265.58,336.79 259.51,332.72 258.15,331.47 C257.03,330.44 257.98,328.52 263.66,320.36 C267.43,314.94 272.66,307.35 275.27,303.50 C277.88,299.65 281.03,295.24 282.26,293.71 L 284.50 290.91 L 290.92 295.59 C294.45,298.17 301.20,302.90 305.92,306.11 C310.64,309.32 316.30,313.21 318.50,314.76 C320.70,316.31 329.70,322.45 338.50,328.40 C347.30,334.35 355.43,340.07 356.56,341.11 C362.12,346.19 361.66,343.87 346.56,290.50 C341.43,272.35 335.39,250.57 333.15,242.09 L 329.07 226.68 L 332.38 222.09 C334.20,219.57 337.71,214.57 340.18,211.00 C354.60,190.14 363.34,178.01 363.69,178.36 C364.12,178.78 370.62,203.36 376.95,228.50 C381.52,246.62 395.87,301.24 404.01,331.50 C407.27,343.60 413.74,368.58 418.38,387.00 C426.76,420.25 432.77,443.23 433.72,445.71 ZM 428.50 285.98 C424.10,290.69 418.63,296.78 416.34,299.52 C411.88,304.87 411.82,304.85 410.14,297.50 C409.64,295.30 407.33,286.30 405.02,277.50 C402.70,268.70 399.55,256.10 398.01,249.50 C396.47,242.90 394.06,233.23 392.65,228.00 C386.88,206.58 379.00,176.33 379.00,175.62 C379.00,175.39 384.06,174.92 390.25,174.58 C432.06,172.26 455.14,170.88 466.00,170.05 C472.88,169.52 487.73,168.59 499.00,167.98 C510.27,167.38 523.29,166.46 527.93,165.96 C532.57,165.45 536.45,165.13 536.56,165.26 C536.73,165.47 513.36,191.68 471.12,238.64 C463.63,246.97 452.77,259.10 447.00,265.60 C441.23,272.10 432.90,281.27 428.50,285.98 ZM 200.59 234.73 C208.79,240.35 215.83,244.97 216.24,244.98 C217.26,245.01 228.26,222.93 227.57,222.24 C227.27,221.94 217.72,222.32 206.35,223.10 L 185.68 224.50 Z" fill="rgb(13,39,113)"/>
<path d="M 336.16 63.35 C335.34,68.00 334.01,75.10 332.98,80.27 C331.81,86.20 330.99,91.47 331.17,92.00 C331.35,92.52 334.79,87.45 338.81,80.72 C342.84,74.00 347.51,66.25 349.20,63.50 C366.90,34.74 371.34,28.00 372.59,28.00 C373.57,28.00 373.88,28.72 373.54,30.25 C373.27,31.49 372.09,36.55 370.93,41.50 C366.49,60.43 359.83,90.08 356.90,104.00 C355.23,111.97 351.38,128.62 348.36,141.00 L 342.87 163.50 L 335.81 175.29 C331.93,181.77 327.99,188.52 327.06,190.29 C325.65,192.97 315.29,210.04 300.24,234.50 C297.35,239.20 287.72,255.72 266.73,292.00 C261.80,300.52 257.19,308.17 256.50,309.00 C255.80,309.83 254.28,312.30 253.11,314.50 C251.94,316.70 249.18,321.36 246.99,324.85 C244.80,328.34 243.00,331.34 243.00,331.52 C243.00,332.37 224.00,363.12 222.94,364.00 C222.60,364.27 220.66,367.42 218.62,371.00 C214.34,378.51 213.15,380.50 210.77,384.13 C209.81,385.58 206.50,391.66 203.40,397.63 C199.59,404.99 197.29,408.40 196.29,408.18 C195.44,408.00 195.08,408.33 195.46,408.93 C195.82,409.52 195.66,410.00 195.09,410.00 C194.53,410.00 194.32,410.68 194.64,411.51 C195.04,412.54 194.76,412.85 193.77,412.47 C191.75,411.69 190.94,412.89 183.19,428.08 C182.21,430.01 181.17,432.04 180.14,434.05 C181.49,431.37 182.88,428.60 184.17,426.00 C188.13,418.02 191.62,411.27 191.93,411.00 C192.24,410.73 192.65,409.83 192.82,409.00 C193.00,408.17 193.57,407.35 194.08,407.16 C194.59,406.98 194.76,406.42 194.45,405.91 C194.14,405.41 194.39,405.00 195.00,405.00 C195.61,405.00 195.88,404.61 195.59,404.14 C195.29,403.67 201.39,390.50 209.14,374.89 C216.88,359.28 232.12,328.05 242.99,305.50 C253.87,282.95 274.96,239.86 289.85,209.75 L 316.93 155.01 L 322.54 129.29 C325.62,115.14 328.52,101.75 328.98,99.54 C332.48,82.63 334.89,70.48 336.16,63.35 ZM 171.73 450.23 L 169.74 454.00 L 169.70 454.00 Z" fill="rgb(113,148,204)"/>
<path d="M 176.25 441.69 C177.42,439.42 178.76,436.78 180.14,434.05 C181.17,432.04 182.21,430.01 183.19,428.08 C190.94,412.89 191.75,411.69 193.77,412.47 C194.76,412.85 195.04,412.54 194.64,411.51 C194.32,410.68 194.53,410.00 195.09,410.00 C195.66,410.00 195.82,409.52 195.46,408.93 C195.08,408.33 195.44,408.00 196.29,408.18 C197.29,408.40 199.59,404.99 203.40,397.63 C206.50,391.66 209.81,385.58 210.77,384.13 C213.15,380.50 214.34,378.51 218.62,371.00 C220.66,367.42 222.60,364.27 222.94,364.00 C224.00,363.12 243.00,332.37 243.00,331.52 C243.00,331.34 244.80,328.34 246.99,324.85 C249.18,321.36 251.94,316.70 253.11,314.50 C254.28,312.30 255.80,309.83 256.50,309.00 C257.19,308.17 261.80,300.52 266.73,292.00 C287.72,255.72 297.35,239.20 300.24,234.50 C315.29,210.04 325.65,192.97 327.06,190.29 C327.99,188.52 331.93,181.77 335.81,175.29 L 342.87 163.50 L 348.36 141.00 C351.17,129.48 354.70,114.27 356.53,105.78 C356.19,107.46 356.00,108.50 356.00,108.73 C356.00,110.35 363.70,101.47 379.88,81.19 C387.70,71.40 399.27,59.87 400.28,60.88 C400.87,61.47 400.28,64.74 398.70,69.66 C390.35,95.61 374.88,143.11 369.72,158.63 L 363.69 176.77 L 367.49 191.63 C368.07,193.90 368.63,196.08 369.16,198.18 C366.14,186.65 363.94,178.60 363.69,178.36 C363.34,178.01 354.60,190.14 340.18,211.00 C337.71,214.57 334.20,219.57 332.38,222.09 L 329.07 226.68 L 330.00 230.20 C329.64,228.94 329.41,228.18 329.35,228.11 C328.69,227.25 325.78,230.59 320.85,237.86 C318.00,242.06 314.82,246.62 313.77,248.00 C307.53,256.21 298.19,269.27 295.17,274.00 C293.23,277.02 289.86,281.88 287.67,284.80 C285.40,287.81 284.08,290.44 284.60,290.90 C284.79,291.08 285.11,291.34 285.53,291.67 L 284.50 290.91 L 282.26 293.71 C281.03,295.24 277.88,299.65 275.27,303.50 C272.66,307.35 267.43,314.94 263.66,320.36 C257.98,328.52 257.03,330.44 258.15,331.47 C258.72,331.99 260.10,333.00 263.42,335.25 C259.55,332.76 256.54,331.00 256.11,331.00 C255.54,331.00 254.53,332.01 253.88,333.25 C253.22,334.49 246.97,343.15 239.99,352.50 C233.01,361.85 222.44,376.48 216.49,385.00 C210.54,393.52 203.84,402.58 201.59,405.12 C199.34,407.66 195.94,412.39 194.04,415.62 C192.13,418.85 188.09,424.88 185.05,429.00 C181.06,434.41 178.36,438.28 176.25,441.69 ZM 371.35 39.73 C372.36,35.40 373.30,31.34 373.54,30.25 C373.88,28.72 373.57,28.00 372.59,28.00 C371.38,28.00 367.18,34.31 350.88,60.78 C352.36,58.36 353.77,56.05 355.03,54.00 C359.93,46.03 366.32,35.56 369.22,30.75 C374.66,21.74 376.03,21.06 374.12,28.33 C373.52,30.63 372.54,34.66 371.35,39.73 ZM 431.73 438.80 C429.14,429.25 424.37,410.74 418.38,387.00 C415.88,377.07 412.85,365.25 410.08,354.56 C413.11,366.23 416.53,379.56 419.43,391.00 C424.66,411.62 430.03,432.55 431.38,437.50 C431.50,437.94 431.61,438.37 431.73,438.80 ZM 369.11 404.48 C370.70,405.50 372.02,406.34 373.00,406.97 C375.41,408.50 389.12,417.67 403.80,427.56 C384.65,414.72 377.75,410.11 369.11,404.48 ZM 358.02 332.10 C356.07,324.35 352.49,311.47 346.56,290.50 C346.03,288.60 345.48,286.67 344.93,284.71 C345.48,286.67 346.03,288.60 346.56,290.50 C352.42,311.19 356.07,324.21 358.02,332.10 ZM 402.28 325.04 C396.43,303.18 388.36,272.59 382.62,250.52 C384.64,258.29 386.73,266.24 389.42,276.50 C393.45,291.84 398.76,311.89 402.28,325.04 ZM 170.63 452.32 L 169.82 454.00 L 169.74 454.00 ZM 341.96 75.48 C340.91,77.23 339.84,79.01 338.81,80.72 C335.34,86.53 332.30,91.11 331.42,91.91 C332.30,91.11 335.33,86.53 338.81,80.72 C339.71,79.21 340.79,77.42 341.96,75.48 ZM 312.38 367.61 C316.77,370.51 325.15,375.98 334.39,382.00 C325.28,376.08 317.29,370.86 312.38,367.61 Z" fill="rgb(160,187,226)"/>
<path d="M 0.00 230.00 L 0.00 0.00 L 173.59 0.00 L 347.18 0.00 L 343.43 6.75 C341.37,10.46 338.02,16.65 335.99,20.50 C333.96,24.35 329.47,32.67 326.01,39.00 C322.55,45.33 318.05,53.65 316.01,57.50 C305.88,76.62 293.97,98.91 287.17,111.50 C283.01,119.20 277.75,129.10 275.48,133.50 C268.90,146.28 253.80,174.44 253.12,175.19 C252.53,175.84 236.37,177.58 208.50,180.00 C201.35,180.62 189.43,181.75 182.00,182.51 C166.06,184.15 149.44,185.61 131.50,186.95 C124.35,187.49 108.60,188.67 96.50,189.57 C84.40,190.48 69.32,191.74 63.00,192.38 L 51.50 193.55 L 79.00 211.70 C94.12,221.69 109.88,232.15 114.00,234.96 C129.37,245.42 155.43,262.63 161.86,266.58 C165.51,268.82 172.56,273.59 177.52,277.18 C182.49,280.78 187.97,284.45 189.71,285.35 C191.45,286.25 193.15,287.44 193.49,287.99 C194.06,288.90 175.65,325.09 163.98,346.00 C161.37,350.67 156.31,360.12 152.74,367.00 C149.17,373.88 140.49,390.30 133.47,403.50 C111.86,444.08 108.05,451.45 108.03,452.75 C108.01,453.72 114.84,454.00 138.91,454.00 L 169.82 454.00 L 172.11 449.25 C174.96,443.32 178.00,438.56 185.05,429.00 C188.09,424.88 192.13,418.85 194.04,415.62 C195.94,412.39 199.34,407.66 201.59,405.12 C203.84,402.58 210.54,393.52 216.49,385.00 C222.44,376.48 233.01,361.85 239.99,352.50 C246.97,343.15 253.22,334.49 253.88,333.25 C254.53,332.01 255.54,331.00 256.11,331.00 C256.68,331.00 261.73,334.07 267.32,337.81 C272.92,341.56 284.02,348.92 292.00,354.17 C299.98,359.42 309.15,365.47 312.38,367.61 C320.79,373.17 338.20,384.50 354.84,395.24 C374.57,407.98 375.99,408.92 406.31,429.24 C421.05,439.13 433.28,447.06 433.47,446.86 C433.67,446.66 432.72,442.45 431.38,437.50 C430.03,432.55 424.66,411.62 419.43,391.00 C414.21,370.38 407.27,343.60 404.01,331.50 C400.76,319.40 394.19,294.65 389.42,276.50 C381.48,246.27 378.83,236.01 367.49,191.63 L 363.69 176.77 L 369.72 158.63 C374.88,143.11 390.35,95.61 398.70,69.66 C400.28,64.74 400.87,61.47 400.28,60.88 C399.27,59.87 387.70,71.40 379.88,81.19 C363.70,101.47 356.00,110.35 356.00,108.73 C356.00,106.66 370.79,41.04 374.12,28.33 C376.03,21.06 374.66,21.74 369.22,30.75 C366.32,35.56 359.93,46.03 355.03,54.00 C350.13,61.97 342.83,74.00 338.81,80.72 C334.79,87.45 331.35,92.52 331.17,92.00 C330.99,91.47 331.81,86.20 332.98,80.27 C334.16,74.35 335.73,65.90 336.48,61.50 C337.24,57.10 338.98,48.33 340.35,42.00 C341.73,35.67 344.34,23.64 346.15,15.25 L 349.45 -0.00 L 446.22 -0.00 L 543.00 0.00 L 543.00 230.00 L 543.00 460.00 L 271.50 460.00 L 0.00 460.00 L 0.00 230.00 ZM 428.50 285.98 C432.90,281.27 441.23,272.10 447.00,265.60 C452.77,259.10 463.63,246.97 471.12,238.64 C513.36,191.68 536.73,165.47 536.56,165.26 C536.45,165.13 532.57,165.45 527.93,165.96 C523.29,166.46 510.27,167.38 499.00,167.98 C487.73,168.59 472.88,169.52 466.00,170.05 C455.14,170.88 432.06,172.26 390.25,174.58 C384.06,174.92 379.00,175.39 379.00,175.62 C379.00,176.33 386.88,206.58 392.65,228.00 C394.06,233.23 396.47,242.90 398.01,249.50 C399.55,256.10 402.70,268.70 405.02,277.50 C407.33,286.30 409.64,295.30 410.14,297.50 C411.82,304.85 411.88,304.87 416.34,299.52 C418.63,296.78 424.10,290.69 428.50,285.98 ZM 357.11 341.63 C356.48,340.87 348.44,335.16 339.23,328.92 C330.03,322.69 320.70,316.32 318.50,314.76 C316.30,313.21 310.50,309.22 305.61,305.90 C296.64,299.80 286.26,292.40 284.60,290.90 C284.08,290.44 285.40,287.81 287.67,284.80 C289.86,281.88 293.23,277.02 295.17,274.00 C298.19,269.27 307.53,256.21 313.77,248.00 C314.82,246.62 318.00,242.06 320.85,237.86 C325.78,230.59 328.69,227.25 329.35,228.11 C329.52,228.32 331.36,235.02 333.44,243.00 C335.53,250.98 341.43,272.35 346.56,290.50 C359.09,334.79 361.12,343.00 359.52,343.00 C358.82,343.00 357.73,342.38 357.11,341.63 ZM 200.59 234.73 L 185.68 224.50 L 206.35 223.10 C217.72,222.32 227.27,221.94 227.57,222.24 C228.26,222.93 217.26,245.01 216.24,244.98 C215.83,244.97 208.79,240.35 200.59,234.73 Z" fill="rgb(254,254,254)"/>
</g>
</svg>